<svg width="24" height="24" viewBox="0 0 24 24" fill="none" xmlns="http://www.w3.org/2000/svg">
<path d="M17 13.8613C17.2652 13.8613 17.5196 13.757 17.7071 13.5713C17.8946 13.3856 18 13.1338 18 12.8712C18 12.6086 17.8946 12.3568 17.7071 12.1711C17.5196 11.9854 17.2652 11.8811 17 11.8811C16.7348 11.8811 16.4804 11.9854 16.2929 12.1711C16.1054 12.3568 16 12.6086 16 12.8712C16 13.1338 16.1054 13.3856 16.2929 13.5713C16.4804 13.757 16.7348 13.8613 17 13.8613ZM17 17.8217C17.2652 17.8217 17.5196 17.7174 17.7071 17.5317C17.8946 17.346 18 17.0942 18 16.8316C18 16.569 17.8946 16.3172 17.7071 16.1315C17.5196 15.9458 17.2652 15.8415 17 15.8415C16.7348 15.8415 16.4804 15.9458 16.2929 16.1315C16.1054 16.3172 16 16.569 16 16.8316C16 17.0942 16.1054 17.346 16.2929 17.5317C16.4804 17.7174 16.7348 17.8217 17 17.8217ZM13 12.8712C13 13.1338 12.8946 13.3856 12.7071 13.5713C12.5196 13.757 12.2652 13.8613 12 13.8613C11.7348 13.8613 11.4804 13.757 11.2929 13.5713C11.1054 13.3856 11 13.1338 11 12.8712C11 12.6086 11.1054 12.3568 11.2929 12.1711C11.4804 11.9854 11.7348 11.8811 12 11.8811C12.2652 11.8811 12.5196 11.9854 12.7071 12.1711C12.8946 12.3568 13 12.6086 13 12.8712ZM13 16.8316C13 17.0942 12.8946 17.346 12.7071 17.5317C12.5196 17.7174 12.2652 17.8217 12 17.8217C11.7348 17.8217 11.4804 17.7174 11.2929 17.5317C11.1054 17.346 11 17.0942 11 16.8316C11 16.569 11.1054 16.3172 11.2929 16.1315C11.4804 15.9458 11.7348 15.8415 12 15.8415C12.2652 15.8415 12.5196 15.9458 12.7071 16.1315C12.8946 16.3172 13 16.569 13 16.8316ZM7 13.8613C7.26522 13.8613 7.51957 13.757 7.70711 13.5713C7.89464 13.3856 8 13.1338 8 12.8712C8 12.6086 7.89464 12.3568 7.70711 12.1711C7.51957 11.9854 7.26522 11.8811 7 11.8811C6.73478 11.8811 6.48043 11.9854 6.29289 12.1711C6.10536 12.3568 6 12.6086 6 12.8712C6 13.1338 6.10536 13.3856 6.29289 13.5713C6.48043 13.757 6.73478 13.8613 7 13.8613ZM7 17.8217C7.26522 17.8217 7.51957 17.7174 7.70711 17.5317C7.89464 17.346 8 17.0942 8 16.8316C8 16.569 7.89464 16.3172 7.70711 16.1315C7.51957 15.9458 7.26522 15.8415 7 15.8415C6.73478 15.8415 6.48043 15.9458 6.29289 16.1315C6.10536 16.3172 6 16.569 6 16.8316C6 17.0942 6.10536 17.346 6.29289 17.5317C6.48043 17.7174 6.73478 17.8217 7 17.8217Z" fill="#4390CE"/>
<path fill-rule="evenodd" clip-rule="evenodd" d="M6.999 1.73267C7.19791 1.73267 7.38868 1.8109 7.52933 1.95016C7.66998 2.08942 7.749 2.2783 7.749 2.47524V3.23069C8.411 3.21781 9.14 3.21781 9.942 3.21781H14.055C14.858 3.21781 15.587 3.21781 16.249 3.23069V2.47524C16.249 2.2783 16.328 2.08942 16.4687 1.95016C16.6093 1.8109 16.8001 1.73267 16.999 1.73267C17.1979 1.73267 17.3887 1.8109 17.5293 1.95016C17.67 2.08942 17.749 2.2783 17.749 2.47524V3.29405C18.009 3.31385 18.255 3.33861 18.488 3.3693C19.66 3.52574 20.609 3.85445 21.358 4.59504C22.106 5.33663 22.438 6.27623 22.596 7.43663C22.749 8.56534 22.749 10.0059 22.749 11.8257V13.9168C22.749 15.7366 22.749 17.1782 22.596 18.3059C22.438 19.4663 22.106 20.4059 21.358 21.1475C20.609 21.8881 19.66 22.2168 18.488 22.3733C17.348 22.5247 15.893 22.5247 14.055 22.5247H9.944C8.106 22.5247 6.65 22.5247 5.511 22.3733C4.339 22.2168 3.39 21.8881 2.641 21.1475C1.893 20.4059 1.561 19.4663 1.403 18.3059C1.25 17.1772 1.25 15.7366 1.25 13.9168V11.8257C1.25 10.0059 1.25 8.56435 1.403 7.43663C1.561 6.27623 1.893 5.33663 2.641 4.59504C3.39 3.85445 4.339 3.52574 5.511 3.3693C5.744 3.33861 5.991 3.31385 6.25 3.29405V2.47524C6.25 2.27847 6.32888 2.08974 6.46932 1.95051C6.60975 1.81128 6.80026 1.73293 6.999 1.73267ZM5.709 4.84158C4.704 4.97524 4.124 5.22673 3.701 5.64554C3.278 6.06435 3.024 6.63861 2.889 7.63465C2.866 7.80296 2.847 7.98118 2.831 8.16831H21.167C21.151 7.98019 21.132 7.80296 21.109 7.63366C20.974 6.63861 20.72 6.06435 20.297 5.64554C19.874 5.22673 19.294 4.97524 18.288 4.84158C17.261 4.70494 15.906 4.70296 13.999 4.70296H9.999C8.092 4.70296 6.738 4.70494 5.709 4.84158ZM2.749 11.8812C2.749 11.0356 2.749 10.3 2.762 9.65346H21.236C21.249 10.3 21.249 11.0356 21.249 11.8812V13.8614C21.249 15.7495 21.247 17.0911 21.109 18.1089C20.974 19.104 20.72 19.6782 20.297 20.097C19.874 20.5158 19.294 20.7673 18.288 20.901C17.261 21.0376 15.906 21.0396 13.999 21.0396H9.999C8.092 21.0396 6.738 21.0376 5.709 20.901C4.704 20.7673 4.124 20.5158 3.701 20.097C3.278 19.6782 3.024 19.104 2.889 18.1079C2.751 17.0911 2.749 15.7495 2.749 13.8614V11.8812Z" fill="#4390CE"/>
</svg>
