<svg width="208" height="46" viewBox="0 0 208 46" fill="none" xmlns="http://www.w3.org/2000/svg">
<g clip-path="url(#clip0_2186_3394)">
<path d="M98.9111 15.1237H92.1271L92.6711 13.1429H98.7191L99.4551 10.4388H93.4391L93.9511 8.5523H100.607L101.407 5.62817H91.2631L87.8711 18.0479H98.1111L98.9111 15.1237Z" fill="#4390CE"/>
<path d="M99.0723 18.0479H102.944L105.024 15.6268L105.92 18.0479H109.472L107.424 13.3001L111.968 8.45801H108.096L106.144 10.7847L105.28 8.45801H101.728L103.744 13.08L99.0723 18.0479Z" fill="#4390CE"/>
<path d="M113.121 20.909L114.273 16.7586C114.945 17.7648 115.937 18.2993 117.249 18.2993C118.561 18.2993 119.905 17.7019 120.961 16.5385C122.017 15.3752 122.529 13.9288 122.529 12.1995C122.529 10.4702 122.209 10.03 121.537 9.30683C120.865 8.58366 120.065 8.23779 119.041 8.23779C118.017 8.23779 117.121 8.64654 116.257 9.46404L116.545 8.45789H113.121L109.729 20.909H113.153H113.121ZM115.649 11.8537C116.129 11.3191 116.705 11.0362 117.345 11.0362C117.985 11.0362 118.241 11.1934 118.561 11.5078C118.881 11.8222 119.009 12.231 119.009 12.734C119.009 13.4886 118.785 14.1489 118.305 14.6835C117.825 15.218 117.281 15.5009 116.609 15.5009C115.937 15.5009 115.681 15.3437 115.393 15.0293C115.073 14.7149 114.913 14.3061 114.913 13.8031C114.913 13.0799 115.169 12.4196 115.649 11.8851V11.8537Z" fill="#4390CE"/>
<path d="M126.817 15.1551C127.393 12.9541 128.641 11.8222 130.529 11.8222H130.817L131.777 8.26922C130.369 8.1749 129.121 8.86663 128.097 10.3759L128.609 8.42644H125.185L122.561 18.0478H125.985L126.785 15.1551H126.817Z" fill="#4390CE"/>
<path d="M132.512 17.1359C133.344 17.8906 134.496 18.2993 135.904 18.2993C137.312 18.2993 138.784 17.8277 139.904 16.853L138.304 14.9979C137.6 15.501 136.896 15.7525 136.224 15.7525C135.104 15.7525 134.496 15.218 134.4 14.1804H140.896C141.152 13.5201 141.28 12.8598 141.28 12.1995C141.28 11.0676 140.928 10.1243 140.224 9.36971C139.52 8.6151 138.496 8.23779 137.12 8.23779C135.744 8.23779 133.984 8.8352 132.896 9.99856C131.808 11.1619 131.264 12.5139 131.264 14.0232C131.264 15.5324 131.68 16.3499 132.512 17.1359ZM135.552 11.1619C135.968 10.8475 136.384 10.7217 136.896 10.7217C137.408 10.7217 137.664 10.8475 137.888 11.0676C138.112 11.2877 138.24 11.6021 138.24 11.948C138.24 12.2938 138.24 12.2938 138.144 12.4511H134.656C134.848 11.8851 135.168 11.4763 135.584 11.1619H135.552Z" fill="#4390CE"/>
<path d="M145.889 15.9411C145.377 15.9411 144.801 15.8154 144.225 15.5953C143.617 15.3752 143.105 15.0608 142.657 14.652L140.961 16.6329C141.537 17.1674 142.273 17.5761 143.137 17.8591C144.001 18.1421 144.865 18.2993 145.793 18.2993C147.137 18.2993 148.193 17.9849 148.929 17.3246C149.665 16.6643 150.017 15.8468 150.017 14.8721C150.017 13.8974 149.793 13.583 149.313 13.1742C148.833 12.7655 148.161 12.3882 147.297 12.0423C146.785 11.8537 146.433 11.665 146.241 11.5392C146.049 11.4135 145.953 11.2877 145.953 11.1305C145.953 10.7532 146.241 10.5645 146.817 10.5645C147.713 10.5645 148.641 10.9104 149.569 11.6021L151.201 9.58981C150.721 9.2125 150.113 8.89808 149.345 8.6151C148.577 8.36356 147.809 8.23779 146.977 8.23779C145.665 8.23779 144.609 8.55221 143.873 9.2125C143.105 9.87279 142.721 10.6588 142.721 11.665C142.721 12.6711 142.945 12.9227 143.425 13.3314C143.873 13.7402 144.577 14.1175 145.473 14.4634C145.985 14.652 146.337 14.8092 146.529 14.935C146.721 15.0608 146.817 15.1865 146.817 15.3752C146.817 15.7525 146.529 15.9726 145.953 15.9726L145.889 15.9411Z" fill="#4390CE"/>
<path d="M155.135 15.9411C154.623 15.9411 154.047 15.8154 153.471 15.5953C152.863 15.3752 152.351 15.0608 151.903 14.652L150.207 16.6329C150.783 17.1674 151.519 17.5761 152.383 17.8591C153.247 18.1421 154.111 18.2993 155.039 18.2993C156.383 18.2993 157.439 17.9849 158.175 17.3246C158.911 16.6643 159.263 15.8468 159.263 14.8721C159.263 13.8974 159.039 13.583 158.559 13.1742C158.079 12.7655 157.407 12.3882 156.543 12.0423C156.031 11.8537 155.679 11.665 155.487 11.5392C155.295 11.4135 155.199 11.2877 155.199 11.1305C155.199 10.7532 155.487 10.5645 156.063 10.5645C156.959 10.5645 157.887 10.9104 158.815 11.6021L160.447 9.58981C159.967 9.2125 159.359 8.89808 158.591 8.6151C157.823 8.36356 157.055 8.23779 156.223 8.23779C154.911 8.23779 153.855 8.55221 153.119 9.2125C152.351 9.87279 151.967 10.6588 151.967 11.665C151.967 12.6711 152.191 12.9227 152.671 13.3314C153.119 13.7402 153.823 14.1175 154.719 14.4634C155.231 14.652 155.583 14.8092 155.775 14.935C155.967 15.0608 156.063 15.1865 156.063 15.3752C156.063 15.7525 155.775 15.9726 155.199 15.9726L155.135 15.9411Z" fill="#4390CE"/>
<path d="M95.1359 27.7322L86.3359 40.2462H90.1439L91.6479 38.0138H96.5439L96.8639 40.2462H100.544L98.5599 27.7322H95.1359ZM93.4399 35.3412L95.8079 31.7568L96.2559 35.3412H93.4399Z" fill="#4390CE"/>
<path d="M109.345 35.341C108.865 34.9322 108.193 34.5549 107.329 34.2091C106.817 34.0204 106.465 33.8317 106.273 33.706C106.081 33.5802 105.985 33.4544 105.985 33.2972C105.985 32.9199 106.273 32.7313 106.849 32.7313C107.745 32.7313 108.673 33.0771 109.601 33.7689L111.233 31.7566C110.753 31.3793 110.145 31.0648 109.377 30.7818C108.609 30.5303 107.841 30.4045 107.009 30.4045C105.697 30.4045 104.641 30.719 103.905 31.3793C103.137 32.0395 102.753 32.8256 102.753 33.8317C102.753 34.8379 102.977 35.0894 103.457 35.4982C103.905 35.9069 104.609 36.2842 105.505 36.6301C106.017 36.8188 106.369 36.976 106.561 37.1017C106.753 37.2275 106.849 37.3533 106.849 37.5419C106.849 37.9192 106.561 38.1393 105.985 38.1393C105.409 38.1393 104.897 38.0136 104.321 37.7935C103.713 37.5734 103.201 37.2589 102.753 36.8502L101.057 38.8311C101.633 39.3656 102.369 39.7743 103.233 40.0573C104.097 40.3403 104.961 40.4975 105.889 40.4975C107.233 40.4975 108.289 40.1831 109.025 39.5228C109.761 38.8625 110.113 38.045 110.113 37.0703C110.113 36.0956 109.889 35.7812 109.409 35.3724L109.345 35.341Z" fill="#4390CE"/>
<path d="M118.593 35.341C118.113 34.9322 117.441 34.5549 116.577 34.2091C116.065 34.0204 115.713 33.8317 115.521 33.706C115.329 33.5802 115.233 33.4544 115.233 33.2972C115.233 32.9199 115.521 32.7313 116.097 32.7313C116.993 32.7313 117.921 33.0771 118.849 33.7689L120.481 31.7566C120.001 31.3793 119.393 31.0648 118.625 30.7818C117.857 30.5303 117.089 30.4045 116.257 30.4045C114.945 30.4045 113.889 30.719 113.153 31.3793C112.385 32.0395 112.001 32.8256 112.001 33.8317C112.001 34.8379 112.225 35.0894 112.705 35.4982C113.153 35.9069 113.857 36.2842 114.753 36.6301C115.265 36.8188 115.617 36.976 115.809 37.1017C116.001 37.2275 116.097 37.3533 116.097 37.5419C116.097 37.9192 115.809 38.1393 115.233 38.1393C114.657 38.1393 114.145 38.0136 113.569 37.7935C112.961 37.5734 112.449 37.2589 112.001 36.8502L110.305 38.8311C110.881 39.3656 111.617 39.7743 112.481 40.0573C113.345 40.3403 114.209 40.4975 115.137 40.4975C116.481 40.4975 117.537 40.1831 118.273 39.5228C119.009 38.8625 119.361 38.045 119.361 37.0703C119.361 36.0956 119.137 35.7812 118.657 35.3724L118.593 35.341Z" fill="#4390CE"/>
<path d="M122.464 30.6562L119.84 40.2461H123.264L125.888 30.6562H122.464Z" fill="#4390CE"/>
<path d="M134.624 30.6561L134.272 32.0081C133.6 30.9706 132.608 30.436 131.296 30.436C129.984 30.436 128.64 31.002 127.648 32.1025C126.656 33.2344 126.144 34.5235 126.144 36.0642C126.144 37.6049 126.496 37.8878 127.168 38.4852C127.872 39.0827 128.672 39.3971 129.632 39.3971C130.592 39.3971 131.712 39.0198 132.608 38.2337L132.544 38.4538C132.352 39.1455 132.064 39.6486 131.744 39.9945C131.264 40.4661 130.592 40.7176 129.728 40.7176C128.864 40.7176 127.36 40.3718 126.272 39.7115L124.736 41.8181C125.376 42.1954 126.176 42.5099 127.104 42.7614C128.032 43.0129 128.96 43.1387 129.888 43.1387C131.872 43.1387 133.312 42.6671 134.272 41.7238C135.008 41.0006 135.584 39.8373 136 38.2652L138.08 30.6247H134.656L134.624 30.6561ZM132.832 36.2528C132.384 36.7245 131.84 36.9446 131.2 36.9446C130.56 36.9446 130.336 36.8188 130.048 36.5358C129.76 36.2843 129.6 35.907 129.6 35.4668C129.6 35.0266 129.824 34.272 130.272 33.8004C130.72 33.3287 131.264 33.0772 131.904 33.0772C132.544 33.0772 132.8 33.2344 133.088 33.5174C133.376 33.8004 133.536 34.1777 133.536 34.6179C133.536 35.058 133.312 35.7812 132.864 36.2528H132.832Z" fill="#4390CE"/>
<path d="M147.903 31.1906C147.391 30.6875 146.719 30.4045 145.823 30.4045C144.927 30.4045 143.871 30.8447 143.007 31.7251L143.327 30.6246H139.903L137.279 40.246H140.703L142.079 35.1523C142.399 33.989 143.007 33.423 143.903 33.423C144.799 33.423 144.991 33.7689 144.991 34.4291C144.991 35.0894 144.959 34.9637 144.895 35.2152L143.519 40.246H146.943L148.351 35.0266C148.543 34.3034 148.639 33.7374 148.639 33.2972C148.639 32.4168 148.383 31.6937 147.871 31.1906H147.903Z" fill="#4390CE"/>
<path d="M163.264 30.436C161.888 30.436 160.736 31.002 159.712 32.1025C159.296 31.002 158.464 30.436 157.152 30.436C155.84 30.436 155.264 30.8762 154.432 31.7252L154.72 30.6561H151.296L148.672 40.2775H152.096L153.472 35.1838C153.792 34.0204 154.4 33.4545 155.264 33.4545C156.128 33.4545 156.32 33.8004 156.32 34.4606C156.32 35.1209 156.288 34.9637 156.192 35.2467L154.816 40.2775H158.24L159.616 35.1838C159.936 34.0204 160.544 33.4545 161.408 33.4545C162.272 33.4545 162.464 33.8004 162.464 34.4606C162.464 35.1209 162.432 34.9323 162.336 35.2467L160.992 40.2775H164.416L165.856 35.058C166.048 34.3349 166.144 33.7689 166.144 33.3287C166.144 32.4483 165.888 31.7566 165.376 31.2221C164.864 30.719 164.16 30.4675 163.232 30.4675L163.264 30.436Z" fill="#4390CE"/>
<path d="M177.088 34.3978C177.088 33.2658 176.736 32.3226 176.032 31.568C175.328 30.8133 174.304 30.436 172.928 30.436C171.552 30.436 169.792 31.0334 168.704 32.1968C167.616 33.3602 167.072 34.7122 167.072 36.2214C167.072 37.7306 167.488 38.5481 168.32 39.3342C169.152 40.0888 170.304 40.4976 171.712 40.4976C173.12 40.4976 174.592 40.0259 175.712 39.0512L174.112 37.1961C173.408 37.6992 172.704 37.9507 172.032 37.9507C170.912 37.9507 170.304 37.4162 170.208 36.3786H176.704C176.96 35.7183 177.088 35.058 177.088 34.3978ZM173.92 34.6493H170.432C170.624 34.0833 170.944 33.6746 171.36 33.3602C171.776 33.0457 172.192 32.92 172.704 32.92C173.216 32.92 173.472 33.0457 173.696 33.2658C173.92 33.4859 174.048 33.8004 174.048 34.1462C174.048 34.4921 174.048 34.4921 173.952 34.6493H173.92Z" fill="#4390CE"/>
<path d="M185.567 30.436C184.543 30.436 183.615 30.8762 182.751 31.7566L183.071 30.6561H179.647L177.023 40.2775H180.447L181.823 35.1838C182.143 34.0204 182.751 33.4545 183.647 33.4545C184.543 33.4545 184.735 33.8004 184.735 34.4606C184.735 35.1209 184.703 34.9952 184.639 35.2467L183.263 40.2775H186.687L188.095 35.058C188.287 34.3349 188.383 33.7689 188.383 33.3287C188.383 32.4483 188.127 31.7252 187.615 31.2221C187.103 30.719 186.431 30.436 185.535 30.436H185.567Z" fill="#4390CE"/>
<path d="M193.377 36.976C193.377 36.8503 193.377 36.6616 193.473 36.3786L194.305 33.3602H196.577L197.313 30.6562H195.041L195.713 28.2351H192.289L191.617 30.6562H190.465L189.729 33.3602H190.881L189.921 36.9132C189.793 37.3534 189.729 37.7621 189.729 38.1709C189.729 38.894 189.985 39.46 190.465 39.8373C190.977 40.246 191.713 40.4347 192.673 40.4347C193.633 40.4347 194.049 40.3089 194.689 40.0888L195.457 37.2905C194.945 37.4791 194.529 37.542 194.145 37.542C193.633 37.542 193.377 37.3534 193.377 36.9446V36.976Z" fill="#4390CE"/>
<path d="M204.257 35.341C203.777 34.9322 203.105 34.5549 202.241 34.2091C201.729 34.0204 201.377 33.8317 201.185 33.706C200.993 33.5802 200.897 33.4544 200.897 33.2972C200.897 32.9199 201.185 32.7313 201.761 32.7313C202.657 32.7313 203.585 33.0771 204.513 33.7689L206.145 31.7566C205.665 31.3793 205.057 31.0648 204.289 30.7818C203.521 30.5303 202.753 30.4045 201.921 30.4045C200.609 30.4045 199.553 30.719 198.817 31.3793C198.049 32.0395 197.665 32.8256 197.665 33.8317C197.665 34.8379 197.889 35.0894 198.369 35.4982C198.817 35.9069 199.521 36.2842 200.417 36.6301C200.929 36.8188 201.281 36.976 201.473 37.1017C201.665 37.2275 201.761 37.3533 201.761 37.5419C201.761 37.9192 201.473 38.1393 200.897 38.1393C200.321 38.1393 199.809 38.0136 199.233 37.7935C198.625 37.5734 198.113 37.2589 197.665 36.8502L195.969 38.8311C196.545 39.3656 197.281 39.7743 198.145 40.0573C199.009 40.3403 199.873 40.4975 200.801 40.4975C202.145 40.4975 203.201 40.1831 203.937 39.5228C204.673 38.8625 205.025 38.045 205.025 37.0703C205.025 36.0956 204.801 35.7812 204.321 35.3724L204.257 35.341Z" fill="#4390CE"/>
<path d="M123.009 27.9837C122.945 28.9584 123.521 29.8074 124.545 29.8074C125.569 29.8074 126.529 29.2099 126.721 27.9837C126.881 26.9775 126.305 26.2544 125.185 26.16C124.161 26.0657 123.073 26.9775 123.009 27.9837Z" fill="#4390CE"/>
<path d="M73.2478 25.4681C72.4478 24.9965 72.3518 24.6192 72.5118 23.7388C72.8318 21.8837 72.9598 19.9972 73.0238 18.1421C73.0558 16.8844 72.4478 15.9726 71.2318 15.2494C66.9118 12.734 62.6878 10.0614 58.4318 7.48318C55.3918 5.62809 52.3838 3.80444 48.9918 1.72925C49.1838 2.57819 49.2158 3.01838 49.3438 3.39569C50.4318 6.66568 50.2078 9.90423 48.9918 13.1113C47.0718 18.1421 43.4558 21.9152 39.3278 25.248C36.9598 27.166 34.3678 28.8325 31.8398 30.6561C32.0638 30.8448 32.2878 31.0334 32.5758 31.2221C39.7118 35.5611 46.8158 39.9316 53.9838 44.2077C54.3678 44.4593 55.1998 44.3335 55.6478 44.0819C58.0158 42.667 60.2878 41.0949 62.6878 39.7115C69.1838 36.0327 75.6478 32.1968 83.7118 31.788C80.1278 29.5871 76.7358 27.4804 73.3118 25.4681H73.2478ZM67.1998 30.3731C63.9678 34.8694 59.9038 38.5796 55.5198 41.9753C55.1358 42.2583 54.2718 42.3212 53.8558 42.1011C47.6798 38.3909 41.5038 34.5864 35.3598 30.8133C35.2638 30.7504 35.2318 30.6561 35.1358 30.5618C43.7118 24.2733 52.0318 17.7962 51.7758 5.50232C53.4718 6.50847 55.0398 7.38885 56.6078 8.36356C61.0238 11.0362 65.3758 13.7716 69.8238 16.4128C70.9118 17.0731 71.2958 17.8591 71.3598 19.0854C71.5518 23.4244 69.6318 27.0403 67.1998 30.4046V30.3731Z" fill="#4390CE" stroke="#4390CE" stroke-width="4" stroke-linecap="round" stroke-linejoin="round"/>
<path d="M37.055 19.6514C37.055 18.7395 36.319 18.0164 35.391 18.0164H12.287C11.359 18.0164 10.623 18.7395 10.623 19.6514C10.623 20.5632 11.359 21.2864 12.287 21.2864H35.423C36.351 21.2864 37.087 20.5632 37.087 19.6514H37.055Z" fill="#4390CE"/>
<path d="M34.5924 38.2966H24.8964C23.9684 38.2966 23.2324 39.0198 23.2324 39.9316C23.2324 40.8435 23.9684 41.5666 24.8964 41.5666H34.5924C35.5204 41.5666 36.2564 40.8435 36.2564 39.9316C36.2564 39.0198 35.5204 38.2966 34.5924 38.2966Z" fill="#4390CE"/>
<path d="M28.0951 29.3354C28.0951 28.4236 27.3591 27.7004 26.4311 27.7004H14.7831C13.8551 27.7004 13.1191 28.4236 13.1191 29.3354C13.1191 30.2473 13.8551 30.9704 14.7831 30.9704H26.4311C27.3591 30.9704 28.0951 30.2473 28.0951 29.3354Z" fill="#4390CE"/>
<path d="M29.5038 11.5393H41.1518C42.0798 11.5393 42.8158 10.8161 42.8158 9.90428C42.8158 8.99246 42.0798 8.26929 41.1518 8.26929H29.5038C28.5758 8.26929 27.8398 8.99246 27.8398 9.90428C27.8398 10.8161 28.5758 11.5393 29.5038 11.5393Z" fill="#4390CE"/>
<path d="M7.71147 27.7004H3.51947C2.59147 27.7004 1.85547 28.4236 1.85547 29.3354C1.85547 30.2473 2.59147 30.9704 3.51947 30.9704H7.71147C8.63947 30.9704 9.37547 30.2473 9.37547 29.3354C9.37547 28.4236 8.63947 27.7004 7.71147 27.7004Z" fill="#4390CE"/>
</g>
<defs>
<clipPath id="clip0_2186_3394">
<rect width="208" height="46" fill="white"/>
</clipPath>
</defs>
</svg>
