<svg width="38" height="30" viewBox="0 0 38 30" fill="none" xmlns="http://www.w3.org/2000/svg">
<g clip-path="url(#clip0_2210_7691)">
<path d="M6.90759 29.8509V27.8653C6.90759 27.104 6.4513 26.6078 5.66918 26.6078C5.2782 26.6078 4.85455 26.7401 4.56124 27.1704C4.33324 26.8063 4.00742 26.6078 3.51862 26.6078C3.19265 26.6078 2.86698 26.707 2.60617 27.071V26.6739H1.92188V29.8509H2.60617V28.0969C2.60617 27.5344 2.89948 27.2696 3.35578 27.2696C3.81178 27.2696 4.04008 27.5675 4.04008 28.0969V29.8509H4.72438V28.0969C4.72438 27.5344 5.05005 27.2696 5.47369 27.2696C5.92998 27.2696 6.15798 27.5675 6.15798 28.0969V29.8509H6.90759ZM17.0416 26.6739H15.9338V25.7142H15.2495V26.6739H14.6304V27.3026H15.2493V28.7589C15.2493 29.487 15.5426 29.9171 16.3248 29.9171C16.6181 29.9171 16.9438 29.8179 17.172 29.6856L16.9764 29.0898C16.7809 29.2221 16.5529 29.2553 16.3899 29.2553C16.0641 29.2553 15.9338 29.0568 15.9338 28.7257V27.3026H17.0416V26.6739ZM22.8419 26.6076C22.4509 26.6076 22.1903 26.8063 22.0273 27.071V26.6739H21.343V29.8509H22.0273V28.0639C22.0273 27.5344 22.2553 27.2366 22.6789 27.2366C22.8093 27.2366 22.9722 27.2697 23.1026 27.3027L23.2981 26.6409C23.1677 26.6078 22.9722 26.6078 22.8419 26.6078M14.0764 26.9388C13.7504 26.7071 13.2943 26.6079 12.8055 26.6079C12.0235 26.6079 11.5022 27.005 11.5022 27.6338C11.5022 28.1634 11.8932 28.4611 12.5775 28.5605L12.9033 28.5936C13.2618 28.6597 13.4573 28.759 13.4573 28.9245C13.4573 29.1561 13.1966 29.3216 12.7403 29.3216C12.284 29.3216 11.9257 29.1561 11.6975 28.9907L11.3717 29.5202C11.7302 29.7849 12.219 29.9173 12.7076 29.9173C13.6201 29.9173 14.1415 29.4872 14.1415 28.8914C14.1415 28.3288 13.7179 28.0309 13.0661 27.9317L12.7403 27.8985C12.447 27.8653 12.219 27.7993 12.219 27.6008C12.219 27.3691 12.447 27.2367 12.8055 27.2367C13.1966 27.2367 13.5876 27.4021 13.7831 27.5014L14.0764 26.9388ZM32.2592 26.6079C31.8681 26.6079 31.6074 26.8065 31.4445 27.0712V26.6741H30.7602V29.8511H31.4445V28.064C31.4445 27.5346 31.6726 27.2367 32.0961 27.2367C32.2266 27.2367 32.3896 27.2699 32.5199 27.3029L32.7154 26.6411C32.5851 26.6079 32.3896 26.6079 32.2592 26.6079ZM23.5262 28.2626C23.5262 29.2223 24.1779 29.9173 25.1881 29.9173C25.6443 29.9173 25.9701 29.8181 26.2959 29.5533L25.9701 28.9907C25.7094 29.1893 25.4488 29.2885 25.1555 29.2885C24.6015 29.2885 24.2105 28.8914 24.2105 28.2626C24.2105 27.667 24.6015 27.2697 25.1555 27.2367C25.4488 27.2367 25.7094 27.3359 25.9701 27.5346L26.2959 26.972C25.9701 26.7071 25.6443 26.6079 25.1881 26.6079C24.1779 26.6079 23.5262 27.3029 23.5262 28.2626ZM29.8479 28.2626V26.6741H29.1636V27.0712C28.9354 26.7734 28.6096 26.6079 28.186 26.6079C27.3062 26.6079 26.6219 27.3029 26.6219 28.2626C26.6219 29.2223 27.3062 29.9173 28.186 29.9173C28.6421 29.9173 28.9681 29.7519 29.1636 29.454V29.8511H29.8479V28.2626ZM27.3387 28.2626C27.3387 27.7 27.6972 27.2367 28.2836 27.2367C28.8376 27.2367 29.2287 27.667 29.2287 28.2626C29.2287 28.8252 28.8376 29.2885 28.2836 29.2885C27.6972 29.2553 27.3387 28.8252 27.3387 28.2626ZM19.1598 26.6079C18.2473 26.6079 17.5955 27.2697 17.5955 28.2626C17.5955 29.2555 18.2472 29.9173 19.1923 29.9173C19.6484 29.9173 20.1047 29.7849 20.4632 29.4872L20.1372 28.9907C19.8766 29.1893 19.5508 29.3216 19.2249 29.3216C18.8013 29.3216 18.3777 29.1231 18.2798 28.5603H20.5935V28.2958C20.6262 27.2697 20.0397 26.6079 19.1598 26.6079ZM19.1596 27.2035C19.5831 27.2035 19.8766 27.4684 19.9416 27.9648H18.3123C18.3775 27.5346 18.6708 27.2035 19.1596 27.2035ZM36.1367 28.2626V25.4165H35.4524V27.0712C35.2243 26.7734 34.8985 26.6079 34.4748 26.6079C33.595 26.6079 32.9107 27.3029 32.9107 28.2626C32.9107 29.2223 33.595 29.9173 34.4748 29.9173C34.9311 29.9173 35.2569 29.7519 35.4524 29.454V29.8511H36.1367V28.2626ZM33.6277 28.2626C33.6277 27.7 33.986 27.2367 34.5726 27.2367C35.1266 27.2367 35.5176 27.667 35.5176 28.2626C35.5176 28.8252 35.1266 29.2885 34.5726 29.2885C33.986 29.2553 33.6277 28.8252 33.6277 28.2626ZM10.7524 28.2626V26.6741H10.0681V27.0712C9.83998 26.7734 9.51416 26.6079 9.09052 26.6079C8.21073 26.6079 7.52643 27.3029 7.52643 28.2626C7.52643 29.2223 8.21073 29.9173 9.09052 29.9173C9.54681 29.9173 9.87263 29.7519 10.0681 29.454V29.8511H10.7524V28.2626ZM8.21073 28.2626C8.21073 27.7 8.5692 27.2367 9.15568 27.2367C9.70965 27.2367 10.1008 27.667 10.1008 28.2626C10.1008 28.8252 9.70965 29.2885 9.15568 29.2885C8.5692 29.2553 8.21073 28.8252 8.21073 28.2626Z" fill="black"/>
<path d="M13.8477 2.54822H24.1121V21.2795H13.8477V2.54822Z" fill="#FF5F00"/>
<path d="M14.5007 11.9139C14.5007 8.10814 16.2603 4.73246 18.9648 2.54819C16.9772 0.959698 14.4682 0 11.731 0C5.24623 0 0 5.32809 0 11.9139C0 18.4997 5.24623 23.8278 11.7309 23.8278C14.4681 23.8278 16.9771 22.8681 18.9648 21.2795C16.2603 19.1284 14.5007 15.7197 14.5007 11.9139Z" fill="#EB001B"/>
<path d="M37.9611 11.9139C37.9611 18.4996 32.7148 23.8278 26.2301 23.8278C23.4929 23.8278 20.9838 22.8681 18.9961 21.2795C21.7333 19.0954 23.4604 15.7197 23.4604 11.9139C23.4604 8.10814 21.7006 4.73246 18.9961 2.54819C20.9837 0.959698 23.4929 0 26.2301 0C32.7148 0 37.9611 5.36126 37.9611 11.9139Z" fill="#F79E1B"/>
</g>
<defs>
<clipPath id="clip0_2210_7691">
<rect width="38" height="30" fill="white"/>
</clipPath>
</defs>
</svg>
